<?xml version="1.0" standalone="no"?>
<!DOCTYPE svg PUBLIC "-//W3C//DTD SVG 20010904//EN"
 "http://www.w3.org/TR/2001/REC-SVG-20010904/DTD/svg10.dtd">
<svg version="1.0" xmlns="http://www.w3.org/2000/svg"
 width="871.000000pt" height="871.000000pt" viewBox="0 0 871.000000 871.000000"
 preserveAspectRatio="xMidYMid meet">
<metadata>
Created by potrace 1.16, written by Peter Selinger 2001-2019
</metadata>
<g transform="translate(0.000000,871.000000) scale(0.100000,-0.100000)"
fill="#000000" stroke="none">
<path d="M4110 8414 c-395 -34 -606 -71 -928 -165 -725 -210 -1418 -662 -1922
-1253 -520 -612 -831 -1312 -942 -2126 -20 -144 -23 -208 -23 -495 0 -256 5
-363 18 -475 98 -790 385 -1478 870 -2083 139 -174 398 -438 569 -580 641
-532 1410 -849 2235 -922 1491 -132 2922 557 3748 1805 494 747 724 1613 665
2505 -83 1239 -696 2330 -1715 3055 -553 393 -1179 630 -1890 716 -123 14
-584 27 -685 18z m58 -386 c12 -73 22 -140 22 -149 0 -13 -17 -19 -75 -28
-103 -15 -100 -16 -120 30 -15 32 -23 39 -39 35 -12 -2 -56 -10 -99 -17 l-79
-12 7 -55 c9 -72 14 -84 34 -78 9 3 51 10 94 17 64 10 80 10 87 -1 10 -17 23
-117 16 -128 -3 -5 -45 -14 -93 -22 -48 -7 -91 -14 -94 -16 -7 -4 13 -130 22
-139 3 -3 50 2 103 12 92 16 96 18 96 42 0 63 6 67 96 81 47 7 87 10 90 7 8
-7 53 -281 47 -287 -5 -6 -736 -131 -740 -126 -3 3 -33 157 -33 172 0 6 18 19
40 29 22 10 40 25 40 34 0 9 -14 105 -32 213 -35 214 -32 208 -100 208 -17 0
-28 6 -32 18 -10 37 -28 164 -23 168 6 6 680 121 717 123 26 1 26 -1 48 -131z
m721 82 c101 -16 187 -32 190 -37 4 -4 36 -40 70 -80 l63 -72 -7 -67 c-11
-108 0 -104 -182 -73 -58 10 -63 13 -64 38 -1 57 -11 65 -94 77 -88 14 -103
11 -116 -24 -15 -39 9 -55 165 -105 l138 -45 61 -67 60 -67 -17 -116 c-9 -65
-23 -122 -29 -128 -7 -6 -52 -34 -100 -62 l-88 -52 -181 29 -182 28 -58 64
c-91 99 -91 100 -84 172 11 94 6 92 135 72 109 -17 111 -18 111 -44 0 -63 5
-66 101 -80 106 -15 122 -9 117 48 l-3 36 -145 47 -146 48 -63 71 -64 71 17
116 c10 65 23 120 29 124 7 4 48 29 92 57 44 27 82 50 85 50 3 0 88 -13 189
-29z m-1754 -337 c44 -81 81 -150 83 -153 1 -3 -33 -25 -77 -48 l-79 -42 -48
60 c-26 33 -48 60 -50 60 -13 0 -74 -36 -74 -43 0 -6 46 -95 103 -199 96 -178
103 -189 127 -183 90 20 81 24 128 -64 l43 -80 -43 -24 c-155 -89 -363 -196
-368 -190 -4 5 -25 40 -46 80 l-39 72 38 39 39 39 -103 189 c-56 104 -104 191
-106 193 -4 6 -83 -31 -83 -39 0 -4 11 -38 25 -75 30 -78 34 -69 -72 -125 -37
-19 -68 -30 -70 -25 -2 6 -39 75 -83 155 -43 80 -76 148 -72 152 13 12 727
398 737 398 6 0 46 -66 90 -147z m2875 -38 c80 -43 146 -78 148 -80 1 -1 -33
-148 -77 -326 l-78 -324 40 -35 39 -35 -41 -83 c-23 -45 -43 -82 -46 -82 -3 0
-91 45 -195 101 l-190 101 43 82 42 81 38 -3 c20 -2 37 1 37 6 0 5 3 23 6 40
6 30 4 32 -76 72 -66 33 -84 39 -96 29 -30 -25 -34 -46 -15 -71 l19 -24 -45
-83 -45 -82 -61 34 c-34 19 -106 58 -159 87 -54 28 -98 56 -98 61 0 6 18 44
41 85 30 55 46 73 58 70 78 -22 65 -29 235 145 l158 161 -30 32 -29 31 44 83
45 82 71 -39 c40 -21 137 -74 217 -116z m-3857 -788 c139 -126 203 -191 206
-208 1 -13 0 -69 -4 -124 l-7 -101 -117 -130 -118 -130 -119 -16 -118 -16
-201 181 c-110 99 -202 182 -204 183 -2 2 -3 56 -2 120 l2 118 67 75 c37 41
94 104 127 138 l60 63 95 14 c52 7 103 14 113 15 10 0 106 -79 220 -182z
m4710 153 c40 -6 82 -13 94 -15 12 -3 78 -66 146 -141 l125 -136 7 -110 7
-109 -67 -62 c-116 -106 -101 -99 -204 -86 l-90 13 -120 93 c-65 51 -127 93
-137 93 -19 0 -64 -37 -64 -52 0 -5 30 -43 67 -83 l66 -74 41 21 41 21 78 -84
78 -84 -58 -53 c-32 -29 -82 -73 -111 -99 l-53 -46 -25 24 c-45 42 -456 497
-455 503 1 5 198 188 266 247 19 17 24 17 110 0 90 -17 90 -17 206 -109 115
-90 143 -104 167 -80 26 26 12 62 -45 122 l-57 58 -41 -20 -42 -20 -76 85 -77
86 57 53 c64 58 64 58 166 44z m-2138 -151 c282 -41 519 -115 780 -244 265
-130 447 -259 664 -470 439 -426 706 -963 776 -1562 20 -169 20 -487 0 -640
-76 -576 -314 -1072 -715 -1487 -226 -233 -452 -398 -735 -537 -251 -122 -500
-199 -773 -238 -202 -29 -543 -29 -744 0 -469 67 -921 266 -1283 564 -114 94
-314 296 -398 402 -286 361 -482 826 -542 1288 -20 159 -20 514 0 672 62 471
253 919 552 1296 91 114 276 301 398 403 326 271 794 479 1230 548 149 23 142
23 405 24 200 2 271 -2 385 -19z m-3267 -549 l98 -59 12 -78 c17 -111 17 -110
-38 -248 -27 -69 -50 -135 -50 -148 0 -15 11 -28 35 -41 19 -11 37 -17 39 -15
2 2 27 42 55 89 l51 84 -31 32 c-17 18 -29 36 -27 41 31 56 103 175 110 179 7
4 225 -117 256 -142 6 -4 -360 -614 -369 -614 -8 0 -307 177 -324 192 -5 4
-14 47 -20 96 l-11 87 53 135 c29 74 53 145 53 157 0 26 -33 47 -60 38 -18 -6
-100 -129 -100 -150 0 -5 13 -23 29 -40 l30 -30 -54 -89 c-29 -48 -57 -92 -62
-97 -5 -5 -38 9 -75 32 -56 33 -68 45 -73 72 -3 18 -11 66 -18 107 l-13 75 95
162 96 162 95 34 c52 19 100 35 107 36 7 0 56 -26 111 -59z m5995 8 l98 -33
99 -162 99 -162 -17 -107 -17 -108 -95 -57 c-52 -32 -99 -59 -105 -59 -5 0
-48 12 -94 27 l-83 28 -95 110 c-53 61 -104 114 -114 119 -12 6 -28 2 -53 -13
l-35 -22 54 -87 c46 -74 57 -86 77 -83 67 11 68 10 124 -79 30 -47 54 -89 54
-95 0 -10 -230 -155 -246 -155 -5 0 -91 136 -192 302 -144 239 -180 304 -170
313 7 7 82 53 166 104 l152 92 86 -32 c84 -32 86 -33 175 -138 110 -129 121
-138 154 -123 36 17 32 50 -17 130 l-41 69 -44 -13 -44 -13 -33 52 c-18 29
-45 73 -60 99 l-27 47 43 27 c24 14 52 32 63 40 27 18 27 18 138 -18z m-6664
-1248 c35 -5 65 -11 67 -13 3 -2 8 -24 12 -48 l7 -43 200 -28 c110 -14 207
-27 216 -27 10 -1 21 14 29 40 8 22 16 42 20 44 3 2 46 -2 95 -8 l90 -12 -3
-30 c-5 -59 -91 -718 -94 -721 -4 -3 -291 36 -296 41 -4 4 18 169 24 174 2 3
23 7 47 10 l42 6 12 99 c7 55 11 101 10 102 -2 2 -32 6 -68 10 l-65 6 -13 -98
c-6 -54 -13 -99 -15 -101 -3 -4 -138 16 -142 20 -2 1 3 46 10 101 9 70 10 99
2 102 -6 2 -40 5 -75 6 l-64 3 -16 -47 c-9 -26 -19 -49 -22 -52 -3 -3 -45 -1
-93 6 l-88 11 5 56 c3 31 16 134 28 229 l22 172 26 0 c14 0 55 -5 90 -10z
m7180 -87 l81 -78 35 -290 c19 -160 35 -300 35 -312 0 -18 -8 -22 -57 -27 -32
-4 -73 -10 -90 -13 -31 -5 -34 -3 -53 42 -18 42 -23 46 -47 41 -16 -2 -112
-15 -215 -27 l-188 -22 -6 -49 c-4 -26 -9 -48 -13 -48 -4 0 -44 -5 -90 -10
-46 -6 -86 -9 -88 -6 -3 2 -22 143 -43 313 l-37 308 59 91 c65 102 58 98 198
110 74 6 75 6 104 -25 17 -17 33 -31 37 -31 4 0 20 20 35 44 l28 44 81 10
c154 18 143 21 234 -65z m-6594 -929 c47 -42 87 -86 90 -98 3 -11 16 -93 29
-180 l25 -160 -56 -92 c-30 -51 -60 -97 -66 -102 -7 -5 -133 -28 -281 -51
l-269 -41 -41 37 c-22 20 -63 57 -90 82 l-49 45 -28 171 -27 170 61 103 c33
57 65 106 71 108 15 5 495 81 523 83 15 1 52 -25 108 -75z m5995 58 l85 -18 5
-43 c3 -24 12 -48 20 -52 8 -5 114 -27 235 -49 121 -23 228 -43 237 -46 10 -3
40 -46 68 -95 l51 -91 -37 -191 c-20 -106 -37 -192 -38 -193 0 0 -37 -30 -81
-66 l-80 -66 -250 48 c-138 27 -251 47 -251 47 -1 -1 -11 -21 -23 -45 -13 -26
-27 -42 -35 -39 -7 3 -47 11 -89 18 -67 11 -77 16 -77 33 0 19 51 293 65 355
6 21 10 23 48 18 100 -14 147 -29 147 -45 0 -9 4 -23 8 -30 5 -7 96 -29 204
-50 153 -30 199 -36 212 -27 22 17 49 150 35 173 -9 14 -58 27 -210 56 l-200
38 -19 -24 -19 -25 -83 15 c-46 8 -87 18 -91 22 -9 8 62 390 72 390 3 -1 44
-9 91 -18z m-5821 -885 l103 -52 75 -163 74 -162 -30 -111 c-16 -61 -31 -113
-33 -115 -4 -3 -420 -196 -474 -220 -29 -12 -37 -10 -140 40 l-109 53 -73 160
-73 160 30 113 c17 62 33 115 35 118 9 8 491 231 501 231 6 0 57 -24 114 -52z
m6299 -402 c7 -6 -349 -660 -360 -660 -7 0 -46 17 -86 38 -69 36 -73 40 -67
65 3 15 8 36 11 47 5 18 -20 34 -186 122 l-192 101 -32 -35 -32 -35 -69 35
c-39 20 -76 40 -84 46 -11 7 6 48 89 205 56 108 107 196 112 196 6 0 44 -19
85 -41 81 -45 78 -39 58 -121 -6 -23 5 -30 184 -125 l191 -100 45 82 c25 46
45 86 45 91 0 4 -18 22 -40 41 -22 19 -40 38 -40 43 0 5 18 42 40 83 l40 75
143 -76 c78 -41 143 -76 145 -77z m-5667 -505 c151 -171 275 -314 277 -319 1
-4 -55 -60 -126 -124 l-129 -116 -34 37 c-19 20 -47 51 -62 68 l-28 31 51 61
50 60 -26 31 c-14 17 -30 31 -36 31 -12 0 -328 -280 -328 -292 0 -5 9 -26 20
-48 11 -22 20 -41 20 -44 0 -2 -31 -31 -68 -64 l-68 -61 -126 142 c-69 78
-138 157 -153 176 l-29 33 50 44 c88 80 87 79 133 49 22 -15 44 -25 50 -23 19
7 321 280 321 291 0 6 -12 23 -26 38 l-27 28 -62 -40 c-34 -21 -66 -39 -71
-38 -9 0 -107 112 -112 128 -3 9 244 231 257 231 4 0 131 -140 282 -310z
m4658 6 l54 -55 -73 -80 c-40 -45 -77 -81 -82 -81 -5 0 -26 9 -47 19 l-38 20
-52 -53 c-28 -28 -55 -65 -60 -82 -8 -29 -4 -34 130 -163 118 -112 142 -131
161 -126 29 9 128 104 128 123 0 8 -9 29 -19 46 l-19 31 78 85 79 85 56 -55
57 -55 -7 -109 c-3 -61 -10 -117 -15 -125 -5 -9 -60 -66 -122 -128 l-113 -112
-126 -12 -127 -13 -191 185 -192 184 7 120 c3 66 10 127 15 135 4 8 62 69 127
134 l120 119 64 7 c145 17 148 16 207 -44z m-4055 -526 l264 -161 37 -103 36
-103 -53 -89 c-30 -49 -61 -90 -69 -91 -8 -1 -31 -4 -51 -8 l-37 -6 18 -52 18
-52 -61 -100 -61 -99 -110 -17 -110 -16 -267 161 c-148 88 -268 165 -268 171
0 5 20 42 44 80 37 60 47 69 67 66 77 -13 70 -20 188 174 l109 180 -34 35 -34
35 48 78 c26 42 50 77 54 77 4 0 126 -72 272 -160z m2668 -340 c15 -41 27 -80
27 -87 1 -7 -17 -23 -39 -35 -22 -13 -40 -27 -40 -33 0 -5 32 -98 71 -207 l72
-197 91 33 91 33 0 63 0 62 79 29 c44 16 81 27 83 26 8 -8 112 -301 108 -305
-2 -2 -162 -62 -355 -132 l-351 -128 -11 27 c-5 14 -20 54 -32 88 l-23 62 39
26 c22 15 38 32 35 38 -2 7 -35 99 -73 205 l-68 193 -49 -3 -49 -3 -31 87
c-17 48 -29 89 -27 91 15 11 397 145 410 144 9 -1 26 -32 42 -77z m-1816 -31
l221 -52 6 -180 c4 -99 7 -249 7 -333 l0 -154 51 -25 c29 -15 49 -31 46 -38
-3 -7 -12 -47 -22 -90 -9 -42 -20 -77 -24 -77 -15 -1 -407 93 -413 99 -4 3 3
45 15 93 20 84 22 87 54 93 30 5 33 9 33 44 l0 37 -77 19 c-43 10 -83 20 -90
22 -7 3 -20 -11 -29 -31 -17 -34 -17 -36 6 -54 l23 -19 -18 -87 c-10 -48 -21
-89 -24 -91 -5 -3 -313 68 -348 80 -8 2 -5 29 11 92 l22 88 50 3 49 3 108 193
c59 106 107 196 107 199 0 4 -13 13 -30 22 -35 18 -36 32 -15 119 22 86 23 88
42 82 10 -2 117 -28 239 -57z m998 -125 c3 -26 6 -68 6 -94 l0 -47 -47 -13
c-27 -7 -49 -14 -51 -15 -3 -2 27 -428 31 -431 1 -1 46 1 99 3 l98 6 5 36 c15
90 15 91 127 91 l67 0 6 -52 c3 -29 6 -102 8 -163 l2 -110 -368 -24 c-225 -15
-371 -21 -376 -15 -5 5 -11 47 -13 93 l-3 84 43 14 42 15 -1 56 c0 32 -6 129
-12 217 l-12 160 -46 9 -46 9 -7 60 c-3 33 -6 77 -6 97 l0 38 153 9 c83 6 184
11 223 11 l71 2 7 -46z"/>
<path d="M1757 6821 c-32 -33 -57 -68 -57 -79 0 -24 273 -272 299 -272 24 0
119 97 127 128 5 16 1 30 -12 42 -120 113 -270 240 -283 240 -10 0 -43 -27
-74 -59z"/>
<path d="M4115 6809 c-600 -62 -1117 -313 -1534 -745 -304 -314 -514 -690
-617 -1104 -82 -331 -95 -680 -38 -1015 87 -517 334 -981 720 -1355 199 -193
372 -314 629 -440 773 -380 1693 -323 2420 151 149 97 288 213 422 353 365
379 587 833 670 1366 24 158 24 507 -1 675 -119 817 -614 1504 -1347 1869
-334 167 -653 243 -1044 251 -104 2 -230 -1 -280 -6z m575 -314 c930 -159
1641 -870 1795 -1795 25 -152 30 -420 11 -586 -59 -504 -277 -948 -642 -1306
-318 -312 -709 -507 -1169 -584 -152 -26 -514 -26 -666 -1 -982 164 -1720 944
-1819 1926 -81 808 291 1577 983 2029 254 166 589 288 897 327 148 18 476 13
610 -10z"/>
<path d="M4095 6336 c-99 -14 -205 -35 -205 -41 0 -2 98 -74 218 -161 119 -86
222 -161 228 -165 6 -5 104 60 242 160 262 191 251 166 87 197 -110 21 -452
27 -570 10z"/>
<path d="M4725 6026 l-290 -212 -3 -401 -2 -400 252 -183 c139 -101 267 -194
283 -206 l30 -22 340 133 340 133 22 63 c12 35 65 198 118 362 l97 298 -28 37
c-52 69 -239 247 -334 318 -157 116 -334 215 -495 277 l-40 15 -290 -212z"/>
<path d="M3600 6206 c-174 -73 -366 -187 -510 -303 -86 -69 -286 -273 -301
-306 -8 -18 14 -93 106 -376 63 -195 116 -355 117 -356 7 -6 674 -258 684
-258 6 0 135 89 287 199 l276 199 0 405 1 405 -285 208 c-157 114 -293 207
-303 207 -9 -1 -42 -11 -72 -24z"/>
<path d="M5942 5129 c-52 -161 -90 -295 -85 -300 21 -21 477 -348 481 -345 9
9 -31 255 -58 360 -48 188 -135 398 -222 538 l-23 38 -93 -291z"/>
<path d="M2603 5326 c-118 -207 -207 -491 -238 -755 -5 -44 -4 -52 7 -44 7 5
111 81 230 167 120 87 220 161 222 165 5 8 -166 541 -174 541 -3 0 -24 -33
-47 -74z"/>
<path d="M4095 4679 c-138 -99 -258 -187 -268 -194 -18 -13 -14 -28 78 -317
54 -166 102 -311 107 -321 8 -16 32 -17 340 -15 l331 3 102 315 c56 173 101
318 99 321 -4 8 -521 383 -532 387 -4 1 -120 -79 -257 -179z"/>
<path d="M2638 4509 l-278 -202 0 -61 c1 -264 125 -665 286 -923 l46 -73 376
2 376 3 207 254 206 253 -33 107 c-19 58 -69 212 -111 341 l-78 235 -345 132
c-190 72 -352 132 -360 132 -8 1 -140 -90 -292 -200z"/>
<path d="M5397 4576 l-337 -131 -84 -260 c-47 -143 -97 -297 -111 -342 l-27
-82 208 -256 207 -255 377 0 378 0 58 97 c133 223 224 488 259 756 8 65 15
128 15 141 0 18 -43 53 -207 173 -115 83 -251 182 -303 221 l-96 69 -337 -131z"/>
<path d="M3782 3400 l-211 -260 83 -257 c46 -142 97 -298 112 -346 16 -49 36
-92 44 -97 24 -13 197 -47 303 -61 141 -17 462 -7 593 19 188 38 180 34 203
105 11 34 60 186 110 338 49 152 91 283 93 292 2 9 -85 126 -202 271 l-205
255 -356 0 -356 1 -211 -260z"/>
<path d="M2871 3019 c101 -117 285 -269 434 -359 96 -58 273 -145 281 -138 4
4 -116 382 -166 526 l-12 32 -295 0 -295 0 53 -61z"/>
<path d="M5271 3058 c-30 -80 -178 -548 -172 -548 3 0 57 25 119 55 116 56
242 133 347 214 67 51 282 256 296 284 9 16 -7 17 -286 17 l-295 0 -9 -22z"/>
<path d="M7755 4883 c-52 -8 -58 -19 -51 -98 11 -113 7 -108 89 -100 40 4 73
9 75 10 7 6 -20 171 -30 182 -10 13 -26 14 -83 6z"/>
<path d="M7454 4840 c-12 -5 -25 -13 -28 -19 -6 -9 9 -170 17 -177 4 -4 116
12 121 17 7 8 -17 164 -26 177 -12 14 -53 15 -84 2z"/>
<path d="M1195 3950 c-22 -4 -107 -18 -188 -30 -121 -19 -150 -27 -158 -42
-13 -25 8 -163 28 -180 15 -12 37 -10 291 29 124 19 127 22 111 127 -14 90
-27 106 -84 96z"/>
<path d="M1280 3020 c-140 -66 -165 -81 -168 -101 -4 -34 53 -156 77 -164 29
-9 360 144 367 170 5 22 -49 154 -69 167 -21 14 -40 7 -207 -72z"/>
<path d="M2684 1673 c-5 -10 -20 -34 -32 -54 l-22 -37 68 -41 c82 -49 104 -51
132 -11 33 46 21 69 -57 115 -37 22 -69 41 -72 43 -4 1 -11 -6 -17 -15z"/>
<path d="M2537 1428 c-8 -13 -26 -42 -41 -65 l-25 -42 73 -45 c87 -52 105 -51
140 8 29 50 26 75 -12 97 -15 8 -48 28 -74 43 l-47 27 -14 -23z"/>
</g>
</svg>
