<?xml version="1.0" standalone="no"?>
<!DOCTYPE svg PUBLIC "-//W3C//DTD SVG 20010904//EN"
 "http://www.w3.org/TR/2001/REC-SVG-20010904/DTD/svg10.dtd">
<svg version="1.0" xmlns="http://www.w3.org/2000/svg"
 width="1080.000000pt" height="1080.000000pt" viewBox="0 0 1080.000000 1080.000000"
 preserveAspectRatio="xMidYMid meet">
<metadata>
Created by potrace 1.16, written by Peter Selinger 2001-2019
</metadata>
<g transform="translate(0.000000,1080.000000) scale(0.100000,-0.100000)"
fill="#000000" stroke="none">
<path d="M5160 9454 c-416 -36 -705 -91 -1040 -199 -456 -148 -939 -417 -1327
-740 -141 -118 -384 -360 -505 -505 -525 -629 -831 -1344 -930 -2175 -20 -169
-17 -712 6 -895 114 -938 507 -1752 1161 -2405 691 -691 1546 -1092 2515
-1180 736 -67 1497 76 2168 407 802 396 1472 1081 1866 1909 288 606 421 1300
377 1974 -39 591 -176 1095 -440 1610 -299 584 -724 1072 -1276 1465 -551 391
-1192 634 -1890 716 -122 14 -587 27 -685 18z m58 -386 c12 -73 22 -140 22
-149 0 -12 -19 -18 -77 -27 -104 -16 -97 -18 -118 29 -15 32 -23 39 -39 35
-12 -2 -56 -10 -99 -17 l-79 -12 7 -55 c9 -72 14 -84 34 -78 9 3 51 10 94 17
64 10 80 10 87 -1 10 -17 23 -117 16 -128 -3 -5 -45 -14 -93 -22 -48 -7 -91
-14 -94 -16 -7 -4 13 -130 22 -139 4 -3 50 2 103 11 92 17 96 18 96 43 0 63 6
67 96 81 47 7 87 10 90 7 8 -7 53 -281 47 -287 -6 -6 -736 -130 -740 -126 -3
3 -33 164 -33 177 0 3 18 14 40 24 22 10 40 25 40 34 0 9 -14 105 -32 213 -35
214 -32 208 -100 208 -17 0 -28 6 -32 18 -10 37 -28 164 -23 168 6 6 680 121
717 123 25 1 26 -2 48 -131z m721 82 c102 -16 187 -33 191 -37 3 -4 35 -40 69
-80 l63 -72 -7 -67 c-11 -108 0 -104 -182 -73 -58 10 -63 13 -64 38 -1 57 -11
65 -94 77 -88 14 -103 11 -116 -24 -15 -39 9 -54 166 -106 l140 -46 59 -66 59
-66 -17 -116 c-10 -64 -19 -119 -22 -123 -2 -4 -47 -32 -99 -63 l-95 -56 -182
29 -182 28 -58 64 c-91 99 -91 100 -84 172 11 94 6 92 135 72 109 -17 111 -18
111 -44 0 -62 5 -66 96 -79 106 -16 127 -8 122 46 l-3 37 -145 47 -146 48 -63
71 -64 71 17 116 c10 65 23 120 29 124 7 4 48 29 92 57 44 27 82 50 85 50 3 0
88 -13 189 -29z m-1750 -344 c45 -82 80 -150 79 -152 -2 -1 -37 -21 -80 -43
l-76 -42 -48 61 c-26 33 -48 60 -50 60 -13 0 -74 -36 -74 -43 0 -6 46 -95 103
-199 96 -178 103 -189 127 -183 90 20 81 24 128 -64 l43 -80 -43 -24 c-173
-99 -362 -197 -368 -190 -4 4 -25 40 -46 80 l-39 72 38 39 38 39 -102 189
c-56 104 -104 191 -106 193 -4 6 -83 -31 -83 -39 0 -4 11 -38 25 -75 23 -60
24 -69 10 -79 -25 -18 -146 -79 -149 -75 -9 13 -155 287 -158 297 -3 15 732
423 743 413 4 -3 43 -73 88 -155z m2871 -31 c80 -43 146 -78 148 -80 1 -1 -33
-148 -77 -326 l-79 -323 40 -36 40 -35 -41 -83 c-23 -45 -43 -82 -46 -82 -3 0
-91 45 -195 101 l-190 101 43 82 42 81 38 -3 c20 -2 37 1 37 6 0 5 3 23 6 40
6 30 4 32 -76 72 l-83 42 -25 -26 -26 -26 21 -28 21 -28 -45 -82 -45 -82 -71
39 c-40 21 -111 60 -159 86 -49 25 -88 50 -88 55 0 5 19 43 41 85 35 65 45 76
63 71 11 -2 32 -8 47 -11 22 -5 42 11 183 155 l158 162 -30 31 -29 32 44 82
44 83 72 -39 c40 -21 137 -74 217 -116z m-3855 -791 l205 -185 -1 -67 c-3
-171 -1 -167 -130 -309 l-116 -129 -119 -16 -118 -16 -201 181 c-110 99 -202
182 -204 183 -2 2 -3 56 -2 120 l2 118 67 75 c37 41 94 104 127 138 l60 63 95
14 c52 7 103 14 113 15 10 1 106 -79 222 -185z m4702 156 c43 -6 88 -13 100
-15 12 -3 78 -66 147 -141 l124 -137 7 -109 7 -109 -67 -61 c-116 -107 -101
-100 -204 -87 l-90 13 -120 93 c-65 51 -127 93 -137 93 -19 0 -64 -37 -64 -52
0 -5 30 -43 67 -83 l66 -74 41 21 41 21 78 -84 78 -84 -58 -53 c-32 -29 -82
-73 -111 -99 l-53 -46 -25 24 c-44 41 -453 494 -454 501 0 6 177 173 265 249
19 17 24 17 110 0 90 -17 90 -17 206 -109 115 -90 143 -104 167 -80 26 26 12
62 -45 122 l-57 58 -41 -20 -42 -20 -76 85 -77 86 57 53 c32 29 63 53 70 54 6
0 47 -5 90 -10z m-2167 -144 c353 -48 720 -177 1020 -360 221 -135 478 -357
652 -566 240 -285 431 -662 523 -1028 54 -217 67 -321 72 -592 5 -261 -5 -383
-48 -595 -117 -563 -447 -1104 -904 -1480 -364 -299 -813 -496 -1288 -565
-197 -28 -539 -28 -739 1 -471 68 -922 266 -1283 564 -116 96 -317 298 -398
402 -289 366 -482 825 -542 1288 -23 177 -20 532 5 702 41 284 115 524 240
778 142 291 295 500 536 737 392 384 911 636 1464 713 132 18 556 19 690 1z
m-3232 -556 l98 -59 12 -78 c17 -110 17 -108 -38 -249 -27 -70 -50 -137 -50
-148 0 -14 12 -28 35 -40 19 -11 37 -17 39 -15 2 2 27 42 55 89 l51 84 -32 33
-31 32 48 83 c26 46 53 89 60 97 11 11 31 3 127 -53 62 -36 119 -70 127 -75
10 -6 -28 -78 -169 -315 -100 -168 -186 -306 -191 -306 -8 0 -307 177 -324
192 -5 4 -14 47 -20 96 l-11 87 53 135 c29 74 53 145 53 157 0 26 -33 47 -60
38 -18 -6 -100 -129 -100 -150 0 -5 13 -23 29 -40 l30 -30 -54 -89 c-29 -48
-57 -92 -62 -97 -5 -5 -38 9 -75 32 -56 33 -68 45 -73 72 -3 18 -12 66 -19
107 l-12 76 95 161 96 162 95 34 c52 19 100 36 107 36 7 1 56 -26 111 -59z
m5995 8 l98 -33 99 -162 99 -162 -17 -107 -17 -108 -95 -57 c-52 -32 -102 -59
-110 -59 -8 0 -50 12 -93 28 -78 27 -80 28 -174 137 -52 61 -103 114 -113 119
-13 6 -29 2 -54 -13 l-35 -22 54 -87 c46 -74 57 -86 77 -83 67 11 68 10 124
-79 30 -47 54 -89 54 -95 0 -10 -230 -155 -246 -155 -5 0 -91 136 -192 302
-144 238 -180 304 -170 313 7 7 82 53 166 104 l152 92 86 -32 c84 -32 86 -33
175 -138 110 -129 121 -138 154 -123 36 17 32 50 -17 130 l-41 69 -44 -13 -44
-13 -33 52 c-18 29 -45 73 -60 99 l-27 47 43 27 c24 14 52 32 63 40 27 18 27
18 138 -18z m-6616 -1255 c17 -4 24 -15 29 -42 3 -20 7 -41 9 -46 1 -6 85 -21
186 -34 101 -13 197 -25 214 -28 29 -5 32 -2 45 37 7 22 16 43 20 45 3 2 46
-2 95 -8 l90 -12 -3 -30 c-5 -57 -91 -718 -94 -720 -4 -4 -291 35 -296 39 -4
5 18 169 24 175 2 3 23 7 47 10 l42 6 12 99 c7 55 11 101 10 102 -2 2 -32 6
-68 10 l-65 6 -13 -98 c-6 -54 -13 -99 -15 -101 -3 -4 -138 16 -142 20 -2 1 3
46 10 101 9 70 10 99 2 102 -6 2 -40 5 -75 6 l-64 3 -16 -47 c-9 -26 -19 -49
-22 -52 -3 -3 -44 -1 -92 5 -69 9 -87 15 -87 28 0 9 12 112 27 230 l27 213 70
-7 c39 -3 81 -9 93 -12z m7132 -80 l81 -78 35 -292 c19 -161 35 -301 35 -311
0 -16 -10 -21 -57 -26 -32 -4 -73 -10 -90 -13 -31 -5 -34 -3 -53 42 -19 45
-22 47 -53 42 -17 -4 -114 -16 -214 -28 l-182 -22 -6 -47 -7 -48 -90 -11 c-50
-7 -93 -10 -95 -7 -3 3 -22 144 -43 313 l-38 308 60 92 c66 101 58 97 198 109
74 6 75 6 104 -25 17 -17 33 -31 37 -31 4 0 20 20 35 44 28 44 29 44 103 54
156 19 148 21 240 -65z m-6594 -929 c47 -42 87 -86 90 -98 3 -11 16 -93 29
-180 l25 -160 -56 -92 c-30 -51 -60 -97 -66 -102 -7 -5 -133 -28 -281 -51
l-268 -41 -42 36 c-22 21 -63 58 -90 83 l-49 45 -28 171 -27 170 61 103 c33
57 65 106 71 108 15 5 495 81 523 83 15 1 52 -25 108 -75z m5995 58 l85 -18 5
-43 c3 -24 12 -48 20 -52 8 -5 114 -27 235 -49 121 -23 228 -43 237 -46 10 -3
40 -46 68 -95 l51 -91 -37 -191 c-20 -106 -37 -192 -38 -193 0 0 -37 -30 -81
-66 l-80 -66 -250 48 c-138 27 -251 47 -251 47 -1 -1 -11 -21 -23 -45 -13 -26
-27 -42 -35 -39 -7 3 -47 11 -89 18 -67 11 -77 16 -77 33 0 18 49 283 66 355
5 21 9 23 47 18 100 -14 147 -29 147 -45 0 -9 4 -23 8 -30 5 -7 96 -29 204
-50 153 -30 199 -36 212 -27 23 17 49 150 35 173 -9 14 -57 27 -211 56 l-199
37 -19 -24 -19 -24 -85 16 c-46 9 -87 19 -91 22 -7 8 65 389 74 389 3 -1 44
-9 91 -18z m-5821 -885 l103 -52 75 -163 74 -162 -30 -111 c-16 -61 -31 -113
-33 -115 -4 -3 -420 -196 -475 -220 -30 -13 -36 -11 -140 40 l-108 53 -73 160
-73 160 30 113 c17 62 33 115 35 118 9 8 491 231 501 231 6 0 57 -24 114 -52z
m6298 -402 c8 -5 -348 -660 -359 -660 -7 0 -46 17 -86 38 -69 36 -73 40 -67
65 3 15 8 36 11 47 5 18 -20 34 -186 122 l-192 101 -32 -35 -32 -35 -69 35
c-39 20 -76 40 -84 45 -11 8 7 49 89 206 56 108 107 196 112 196 6 0 44 -19
85 -41 81 -45 78 -39 58 -121 -6 -23 5 -30 184 -125 l191 -100 45 82 c25 46
45 86 45 91 0 4 -18 22 -40 41 -22 19 -40 39 -40 44 0 6 18 43 40 83 l41 74
142 -76 c78 -41 143 -76 144 -77z m-5666 -505 c151 -171 274 -315 274 -322 0
-6 -56 -62 -125 -123 -93 -84 -128 -110 -138 -102 -7 5 -35 36 -62 67 l-50 58
50 60 50 60 -26 31 c-14 17 -30 31 -36 31 -12 0 -328 -280 -328 -292 0 -5 9
-26 20 -48 11 -22 20 -41 20 -44 0 -2 -31 -31 -68 -64 l-68 -61 -126 142 c-69
78 -138 157 -153 176 l-29 33 50 44 c88 80 87 79 133 49 22 -15 44 -25 50 -23
19 7 321 280 321 291 0 6 -12 23 -26 38 l-27 28 -62 -40 c-34 -21 -66 -39 -71
-38 -9 0 -107 112 -112 128 -3 9 244 231 257 231 4 0 131 -140 282 -310z
m4658 6 l54 -55 -73 -80 c-40 -45 -77 -81 -82 -81 -5 0 -26 9 -47 20 l-39 19
-56 -59 c-83 -86 -82 -88 76 -239 104 -99 137 -126 157 -124 15 1 48 25 83 60
l58 57 -24 41 -24 40 78 85 79 85 56 -55 57 -55 -6 -109 c-8 -128 -3 -120
-148 -263 l-103 -102 -126 -12 -127 -13 -191 185 -192 184 7 120 c3 66 10 127
15 135 4 8 61 68 126 133 l119 118 65 8 c142 19 149 17 208 -43z m-4055 -526
l264 -161 30 -82 c16 -45 32 -92 36 -104 5 -15 -8 -45 -47 -110 l-53 -88 -51
-8 -51 -8 17 -52 18 -52 -61 -100 -61 -99 -110 -17 -110 -16 -267 160 c-148
89 -268 166 -268 172 0 5 20 42 44 80 37 60 47 69 67 66 77 -13 70 -20 188
174 l109 180 -34 35 -34 35 48 78 c26 42 50 77 54 77 4 0 127 -72 272 -160z
m2668 -340 c15 -41 28 -80 28 -87 0 -7 -18 -23 -40 -35 -22 -13 -40 -27 -40
-33 0 -5 32 -98 71 -207 l72 -197 91 33 91 33 0 63 0 62 79 29 c44 16 81 27
84 25 8 -8 111 -300 107 -304 -2 -2 -162 -62 -355 -132 l-351 -128 -11 27 c-5
14 -20 54 -32 88 l-23 62 39 26 c22 15 38 32 35 38 -2 7 -35 99 -73 205 l-69
194 -48 -4 -49 -3 -30 83 c-17 47 -27 87 -22 92 14 13 387 149 404 147 8 -1
26 -34 42 -77z m-1816 -31 l221 -52 6 -180 c4 -99 7 -249 7 -333 l0 -154 51
-25 c29 -15 49 -31 46 -38 -3 -7 -12 -47 -22 -90 -9 -42 -20 -77 -24 -77 -15
-1 -407 93 -413 99 -4 3 3 45 15 93 20 84 22 87 54 93 30 5 33 9 33 44 l0 37
-77 19 c-43 10 -83 20 -90 22 -7 3 -20 -11 -29 -31 -17 -34 -17 -36 6 -54 l23
-19 -18 -87 c-10 -48 -21 -88 -24 -90 -5 -3 -315 67 -348 79 -8 2 -5 29 11 92
l22 88 50 3 49 3 108 193 c59 106 107 196 107 199 0 4 -13 13 -30 22 -35 18
-36 32 -15 119 22 86 23 88 42 82 10 -2 117 -28 239 -57z m1003 -210 l1 -56
-47 -13 c-27 -7 -49 -14 -51 -15 -3 -2 27 -428 31 -431 1 -1 46 1 99 3 l98 6
5 36 c15 90 15 91 127 91 l67 0 6 -52 c3 -29 6 -102 8 -163 l2 -110 -372 -24
c-205 -14 -374 -23 -377 -20 -2 2 -6 44 -7 93 l-4 89 43 14 42 15 -1 56 c0 32
-6 129 -12 217 l-12 160 -46 9 -46 9 -7 60 c-3 33 -6 76 -6 97 l0 36 223 15
222 14 7 -40 c3 -22 7 -65 7 -96z"/>
<path d="M2807 7861 c-32 -33 -57 -68 -57 -79 0 -24 273 -272 299 -272 24 0
119 97 127 128 4 14 1 29 -7 37 -89 86 -276 245 -289 245 -9 0 -42 -27 -73
-59z"/>
<path d="M5170 7849 c-619 -68 -1119 -310 -1539 -745 -305 -315 -514 -689
-617 -1104 -100 -404 -98 -807 7 -1224 40 -158 86 -280 174 -461 125 -257 279
-468 491 -675 208 -203 377 -322 639 -450 761 -374 1669 -325 2387 130 171
109 263 184 418 339 393 394 621 847 707 1401 23 154 23 517 0 673 -86 569
-331 1049 -733 1437 -370 357 -827 584 -1331 660 -159 24 -469 34 -603 19z
m570 -314 c703 -120 1286 -552 1599 -1186 256 -516 291 -1109 99 -1669 -76
-222 -220 -476 -370 -655 -352 -419 -793 -671 -1333 -762 -152 -25 -514 -25
-666 0 -983 164 -1720 944 -1819 1926 -89 889 375 1733 1178 2139 234 118 449
184 709 217 141 18 472 13 603 -10z"/>
<path d="M5145 7376 c-99 -14 -205 -35 -205 -41 0 -2 98 -74 218 -161 119 -86
222 -161 228 -165 6 -5 104 60 242 160 262 191 251 166 87 197 -110 21 -452
27 -570 10z"/>
<path d="M5775 7066 l-290 -212 -3 -401 -2 -400 281 -204 c155 -112 286 -203
293 -201 24 7 661 255 668 261 4 3 59 167 123 364 l116 358 -27 37 c-52 69
-239 247 -334 318 -157 116 -334 215 -495 277 l-40 15 -290 -212z"/>
<path d="M4650 7246 c-174 -73 -366 -187 -510 -303 -86 -69 -286 -273 -301
-306 -7 -18 14 -94 106 -376 63 -195 116 -355 117 -356 7 -6 674 -258 684
-258 6 0 135 89 287 199 l276 199 0 405 1 405 -286 208 c-157 114 -293 207
-302 207 -9 -1 -42 -11 -72 -24z"/>
<path d="M6992 6168 c-52 -160 -90 -294 -85 -298 21 -21 477 -349 481 -346 9
9 -31 255 -58 360 -48 188 -135 399 -222 538 l-23 37 -93 -291z"/>
<path d="M3654 6367 c-92 -161 -170 -374 -208 -569 -33 -166 -41 -244 -24
-231 7 5 111 81 230 167 120 87 220 161 222 165 5 8 -166 541 -174 541 -3 0
-24 -33 -46 -73z"/>
<path d="M5145 5719 c-138 -99 -258 -187 -268 -194 -18 -13 -14 -28 78 -317
54 -166 102 -311 107 -321 8 -16 32 -17 340 -15 l331 3 102 315 c56 173 101
318 99 321 -4 8 -521 383 -532 387 -4 1 -120 -79 -257 -179z"/>
<path d="M3688 5549 l-278 -202 0 -61 c1 -264 125 -665 286 -923 l46 -73 376
2 376 3 207 254 206 253 -33 107 c-19 58 -69 212 -111 341 l-78 235 -345 132
c-190 72 -352 132 -360 132 -8 1 -140 -90 -292 -200z"/>
<path d="M6449 5617 c-183 -71 -335 -131 -337 -132 -1 -1 -52 -156 -113 -343
l-110 -341 207 -256 207 -255 377 0 378 0 55 93 c30 50 62 107 72 126 44 87
110 269 141 388 30 117 64 323 64 387 0 18 -43 53 -207 173 -115 83 -251 182
-304 221 l-95 69 -335 -130z"/>
<path d="M4832 4441 l-211 -260 111 -343 c61 -189 113 -346 117 -350 11 -13
162 -47 281 -64 217 -31 561 -10 768 46 l41 10 50 158 c28 86 80 245 114 353
l64 196 -206 256 -206 256 -356 0 -356 1 -211 -259z"/>
<path d="M3921 4059 c101 -117 285 -269 434 -359 97 -59 273 -145 281 -138 3
3 -36 130 -86 282 l-91 276 -296 0 -295 0 53 -61z"/>
<path d="M6321 4098 c-30 -80 -178 -548 -172 -548 3 0 57 25 119 55 116 56
242 133 347 214 67 51 282 256 296 284 9 16 -7 17 -286 17 l-295 0 -9 -22z"/>
<path d="M8803 5923 c-49 -6 -56 -22 -48 -106 4 -41 11 -80 15 -87 6 -9 26
-10 79 -5 39 4 71 11 71 15 0 36 -24 168 -32 178 -10 12 -23 13 -85 5z"/>
<path d="M8504 5880 c-12 -5 -25 -13 -28 -19 -6 -9 9 -170 17 -177 4 -4 116
12 121 17 7 8 -17 164 -26 177 -12 14 -53 15 -84 2z"/>
<path d="M2215 4985 c-5 -2 -77 -13 -158 -26 -121 -18 -150 -26 -158 -41 -13
-25 8 -163 28 -180 15 -12 37 -10 291 29 78 12 105 20 113 34 11 21 -7 156
-23 177 -9 11 -68 16 -93 7z"/>
<path d="M2330 4061 c-141 -67 -165 -81 -168 -102 -4 -34 53 -156 77 -164 29
-9 360 144 367 170 5 22 -49 154 -69 167 -21 14 -39 7 -207 -71z"/>
<path d="M3734 2713 c-5 -10 -20 -34 -32 -54 l-22 -37 68 -41 c82 -49 104 -51
132 -11 33 46 21 69 -57 115 -37 22 -69 41 -72 43 -4 1 -11 -6 -17 -15z"/>
<path d="M3587 2468 c-8 -13 -26 -42 -41 -65 l-25 -42 73 -45 c87 -52 105 -51
140 8 29 50 26 75 -12 97 -15 8 -48 28 -74 43 l-47 27 -14 -23z"/>
</g>
</svg>
